{
	"asset":{
		"generator":"Khronos glTF Blender I/O v4.0.44",
		"version":"2.0"
	},
	"extensionsUsed":[
		"KHR_materials_transmission",
		"KHR_materials_specular",
		"KHR_materials_ior"
	],
	"scene":0,
	"scenes":[
		{
			"name":"Scene",
			"nodes":[
				0
			]
		}
	],
	"nodes":[
		{
			"mesh":0,
			"name":"book C001",
			"rotation":[
				0.7071068286895752,
				0,
				0,
				0.7071068286895752
			]
		}
	],
	"materials":[
		{
			"alphaMode":"BLEND",
			"doubleSided":true,
			"extensions":{
				"KHR_materials_transmission":{
					"transmissionFactor":1
				},
				"KHR_materials_specular":{
					"specularFactor":0
				},
				"KHR_materials_ior":{
					"ior":1
				}
			},
			"name":"initialShadingGroup",
			"pbrMetallicRoughness":{
				"baseColorFactor":[
					0.5,
					0.5,
					0.5,
					1
				],
				"metallicFactor":0
			}
		}
	],
	"meshes":[
		{
			"name":"book C001",
			"primitives":[
				{
					"attributes":{
						"POSITION":0,
						"NORMAL":1,
						"TEXCOORD_0":2
					},
					"indices":3,
					"material":0
				}
			]
		}
	],
	"accessors":[
		{
			"bufferView":0,
			"componentType":5126,
			"count":6055,
			"max":[
				0.5953019857406616,
				3.910753011703491,
				-3.099999958067201e-05
			],
			"min":[
				-0.5352460145950317,
				-3.913022041320801,
				-4.787999153137207
			],
			"type":"VEC3"
		},
		{
			"bufferView":1,
			"componentType":5126,
			"count":6055,
			"type":"VEC3"
		},
		{
			"bufferView":2,
			"componentType":5126,
			"count":6055,
			"type":"VEC2"
		},
		{
			"bufferView":3,
			"componentType":5123,
			"count":32922,
			"type":"SCALAR"
		}
	],
	"bufferViews":[
		{
			"buffer":0,
			"byteLength":72660,
			"byteOffset":0,
			"target":34962
		},
		{
			"buffer":0,
			"byteLength":72660,
			"byteOffset":72660,
			"target":34962
		},
		{
			"buffer":0,
			"byteLength":48440,
			"byteOffset":145320,
			"target":34962
		},
		{
			"buffer":0,
			"byteLength":65844,
			"byteOffset":193760,
			"target":34963
		}
	],
	"buffers":[
		{
			"byteLength":259604,
			"uri":"libro.bin"
		}
	]
}
